# xmcd
#
# Track frame offsets:
# 150
# 17764
# 31403
# 45467
# 60305
# 77081
# 90760
# 105781
# 122909
# 137693
# 154609
# 168044
# 188706
# 204533
# 225679
# 243471
# 257465
# 268564
#
# Disc length: 3737 seconds
#
#
# Revision: 0
# Processed by: cddbd v1.5.2PL0 Copyright (c) Steve Scherf et al.
# Submitted via: FreeRIP 2.945 
#
DISCID=d10e9712
DTITLE=Henry-M1963 - Stormy3
DYEAR=1963
DGENRE=Jungle
TTITLE0=St 301
TTITLE1=St 302
TTITLE2=St 303
TTITLE3=St 304
TTITLE4=St 305
TTITLE5=St 306
TTITLE6=St 307
TTITLE7=St 308
TTITLE8=St 309
TTITLE9=St 310
TTITLE10=St 311
TTITLE11=St 312
TTITLE12=St 313
TTITLE13=St 314
TTITLE14=St 315
TTITLE15=St 316
TTITLE16=St 317
TTITLE17=St 318
EXTD=Stormy, Misty's Foal by Marguerite Henry\nread by John McDonough 5 CDs 1963\nrecorded books Jungle country
EXTT0=
EXTT1=
EXTT2=
EXTT3=
EXTT4=
EXTT5=
EXTT6=
EXTT7=
EXTT8=
EXTT9=
EXTT10=
EXTT11=
EXTT12=
EXTT13=
EXTT14=
EXTT15=
EXTT16=
EXTT17=
PLAYORDER=
